<?xml version="1.0" standalone="no"?>
<!DOCTYPE svg PUBLIC "-//W3C//DTD SVG 20010904//EN"
 "http://www.w3.org/TR/2001/REC-SVG-20010904/DTD/svg10.dtd">
<svg version="1.0" xmlns="http://www.w3.org/2000/svg"
 width="500.000000pt" height="500.000000pt" viewBox="0 0 500.000000 500.000000"
 preserveAspectRatio="xMidYMid meet">
<metadata>
Created by potrace 1.14, written by Peter Selinger 2001-2017
</metadata>
<g transform="translate(0.000000,500.000000) scale(0.100000,-0.100000)"
fill="#000000" stroke="none">
<path d="M0 2500 l0 -2500 2500 0 2500 0 0 2500 0 2500 -2500 0 -2500 0 0
-2500z m2850 2405 c526 -82 965 -298 1339 -660 393 -380 632 -848 718 -1405
25 -161 25 -529 0 -690 -33 -214 -98 -439 -178 -623 -330 -753 -1022 -1289
-1834 -1421 -684 -111 -1383 73 -1920 505 -183 148 -404 395 -528 591 -140
221 -259 512 -316 774 -74 337 -73 723 4 1064 175 778 735 1430 1483 1724 180
71 448 135 647 155 128 14 460 5 585 -14z"/>
<path d="M2170 4635 c-549 -87 -1041 -377 -1378 -813 -235 -305 -376 -643
-432 -1038 -17 -118 -15 -122 45 -73 168 141 422 265 650 319 274 65 625 51
880 -34 55 -19 101 -33 102 -32 1 1 -13 49 -31 106 -58 182 -71 279 -71 510 1
226 15 318 76 502 58 175 175 387 295 536 l27 32 -39 -1 c-22 -1 -77 -7 -124
-14z m-759 -828 c93 -62 91 -191 -4 -261 -38 -28 -125 -29 -164 0 -45 34 -73
82 -73 128 0 91 64 156 155 156 37 0 62 -6 86 -23z"/>
<path d="M2715 4594 c213 -261 336 -588 360 -954 11 -177 -22 -411 -85 -598
-23 -70 -25 -82 -11 -77 66 26 172 57 261 77 91 20 133 23 325 23 240 0 308
-9 490 -65 188 -58 375 -155 522 -272 40 -32 75 -58 77 -58 6 0 -2 65 -25 200
-90 551 -407 1057 -864 1385 -297 212 -682 360 -1026 391 l-72 7 48 -59z
m1041 -780 c69 -33 99 -123 66 -198 -35 -78 -117 -112 -197 -81 -107 41 -135
174 -53 252 18 17 40 33 48 36 31 11 103 6 136 -9z"/>
<path d="M2483 4407 c-72 -79 -168 -261 -218 -410 -54 -162 -68 -270 -62 -476
4 -154 8 -191 35 -291 47 -180 119 -334 225 -478 l39 -54 42 59 c137 189 216
384 250 616 42 276 -6 561 -136 822 -31 62 -133 220 -147 229 -4 3 -17 -5 -28
-17z"/>
<path d="M1315 2804 c-255 -28 -518 -128 -700 -268 l-46 -34 43 -35 c136 -111
372 -214 583 -253 121 -23 359 -23 480 0 122 23 285 78 391 132 79 40 234 142
234 154 0 12 -155 114 -234 154 -104 54 -269 109 -386 131 -87 16 -293 27
-365 19z"/>
<path d="M3445 2804 c-169 -19 -361 -76 -507 -151 -95 -49 -228 -138 -228
-153 0 -15 133 -104 228 -153 110 -57 235 -101 365 -129 134 -28 378 -30 512
-4 125 25 253 68 370 126 95 46 245 143 245 159 0 10 -85 71 -166 120 -129 76
-287 134 -449 166 -81 16 -297 27 -370 19z"/>
<path d="M350 2311 c0 -12 7 -67 15 -124 140 -935 846 -1657 1777 -1817 62
-11 130 -20 151 -20 l39 0 -50 63 c-161 202 -270 442 -324 709 -19 94 -23 145
-23 308 0 220 14 321 71 500 18 57 32 106 30 107 -2 2 -18 -3 -37 -11 -19 -8
-77 -26 -129 -40 -310 -84 -655 -75 -951 24 -170 56 -371 163 -489 259 -84 68
-80 66 -80 42z m1059 -858 c43 -33 71 -82 71 -127 0 -91 -64 -156 -155 -156
-172 0 -215 232 -55 299 36 15 108 7 139 -16z"/>
<path d="M4585 2279 c-175 -146 -432 -265 -688 -320 -119 -26 -419 -37 -538
-20 -96 14 -252 51 -336 81 -32 11 -58 20 -58 20 -1 0 12 -38 27 -85 39 -115
65 -246 79 -390 37 -399 -99 -845 -354 -1157 l-47 -58 37 0 c63 0 220 29 360
65 733 192 1316 772 1518 1510 28 104 49 217 70 373 2 17 1 32 -3 31 -4 0 -34
-23 -67 -50z m-844 -813 c89 -37 123 -149 70 -230 -31 -47 -70 -66 -133 -66
-52 0 -62 3 -98 36 -132 120 -2 328 161 260z"/>
<path d="M2450 2228 c-106 -150 -171 -293 -216 -471 -36 -140 -45 -396 -19
-549 30 -185 108 -384 211 -538 61 -91 71 -103 82 -96 21 13 125 180 166 267
98 207 129 349 130 584 0 183 -13 277 -60 426 -45 144 -141 328 -220 422 l-23
27 -51 -72z"/>
</g>
</svg>
